IKResults
version=1
nRows=5
nColumns=63
inDegrees=yes

Units are S.I. units (second, meters, Newtons, ...)
If the header above contains a line with 'inDegrees', this indicates whether rotational values are in degrees (yes) or radians (no).

endheader
time	pelvis_tilt	pelvis_list	pelvis_rotation	pelvis_tx	pelvis_ty	pelvis_tz	hip_flexion_r	hip_adduction_r	hip_rotation_r	knee_angle_r	knee_angle_r_beta	ankle_angle_r	subtalar_angle_r	mtp_angle_r	hip_flexion_l	hip_adduction_l	hip_rotation_l	knee_angle_l	knee_angle_l_beta	ankle_angle_l	subtalar_angle_l	mtp_angle_l	L5_S1_Flex_Ext	L5_S1_Lat_Bending	L5_S1_axial_rotation	L4_L5_Flex_Ext	L4_L5_Lat_Bending	L4_L5_axial_rotation	L3_L4_Flex_Ext	L3_L4_Lat_Bending	L3_L4_axial_rotation	L2_L3_Flex_Ext	L2_L3_Lat_Bending	L2_L3_axial_rotation	L1_L2_Flex_Ext	L1_L2_Lat_Bending	L1_L2_axial_rotation	L1_T12_Flex_Ext	L1_T12_Lat_Bending	L1_T12_axial_rotation	Abs_r3	Abs_r2	Abs_r1	Abs_t1	Abs_t2	neck_flexion	neck_bending	neck_rotation	arm_flex_r	arm_add_r	arm_rot_r	elbow_flex_r	pro_sup_r	wrist_flex_r	wrist_dev_r	arm_flex_l	arm_add_l	arm_rot_l	elbow_flex_l	pro_sup_l	wrist_flex_l	wrist_dev_l
      2.03333333	     17.66611397	     -8.72376583	    -47.03576659	     -0.68768741	      0.59093904	     -0.39921528	     -3.94657628	    -27.12103947	      0.12580679	     59.89332273	      1.04533568	      0.00000000	      0.00000000	      0.00000000	    -21.63653527	     -2.80809142	     -4.65128516	     81.58240596	      1.42388160	    -61.19003674	    -14.22452081	      0.00000000	     -8.45569723	     -0.64145646	     -1.23461675	    -15.70307533	     -0.85313709	     -1.31178029	    -13.89186499	     -1.55963723	     -1.31178029	     -9.66401637	     -1.55963723	     -1.08028965	     -7.85196045	     -1.30805801	     -1.00312611	     -4.83158540	     -0.99361605	     -0.92596256	    -60.39819978	     -7.25628374	     -6.86656796	      0.00000000	      0.00000000	     28.51666842	     -0.37129352	     -7.63516917	     36.28074601	      2.25056560	    -44.71583019	     24.45633562	     89.99559364	      0.00000000	      0.00000000	     32.95438185	    -14.75116382	     12.36702905	     29.03505865	     89.99559364	      0.00000000	      0.00000000
      2.06666667	     17.29851456	     -4.69505482	    -45.34736571	     -0.68653434	      0.58074405	     -0.39404323	     -2.56627595	    -30.19283405	      0.19194375	     59.89644681	      1.04539021	      0.00000000	      0.00000000	      0.00000000	    -12.71909341	     -2.30979991	     -0.68879777	     90.95340763	      1.58743643	    -57.28638082	    -13.19914027	      0.00000000	     -8.59887271	     -0.69643200	     -1.49936579	    -15.96896651	     -0.92625456	     -1.59307616	    -14.12708798	     -1.69330477	     -1.59307616	     -9.82765162	     -1.69330477	     -1.31194507	     -7.98491320	     -1.42016414	     -1.21823471	     -4.91339587	     -1.07877317	     -1.12452435	    -61.42088790	     -7.87817809	     -8.33902273	      0.00000000	      0.00000000	     28.53591025	     -3.46751912	    -17.38603099	     36.47394022	     -0.19026663	    -37.70773818	     24.80888331	     89.99559364	      0.00000000	      0.00000000	     38.52545770	    -13.79939285	     15.61905087	     27.20053648	     89.99559364	      0.00000000	      0.00000000
      2.10000000	     15.49624963	     -0.42445916	    -42.33705463	     -0.68421835	      0.57096917	     -0.39147977	     -1.03345558	    -32.29085562	      0.25024426	     59.89940370	      1.04544181	      0.00000000	      0.00000000	      0.00000000	     -1.78470924	     -1.96049075	      4.88092827	    100.86244088	      1.76038168	    -53.33454989	    -11.74433702	      0.00000000	     -8.60688925	     -0.57122736	     -1.88226895	    -15.98385403	     -0.75973238	     -1.99991076	    -14.14025835	     -1.38888219	     -1.99991076	     -9.83681373	     -1.38888219	     -1.64698533	     -7.99235736	     -1.16484682	     -1.52934352	     -4.91797652	     -0.88483117	     -1.41170171	    -61.47814923	     -6.46183810	    -10.46861523	      0.00000000	      0.00000000	     28.54007279	     -7.90127136	    -30.57941684	     36.88033327	     -2.62043044	    -31.51226156	     25.75184506	     89.99559364	      0.00000000	      0.00000000	     43.20843993	    -11.90205613	     16.39057885	     25.91039346	     89.99559364	      0.00000000	      0.00000000
      2.13333333	     12.08163830	      3.47512169	    -39.32796331	     -0.67991783	      0.55978301	     -0.38968068	      1.60661389	    -33.24858591	      0.30773588	     59.90017546	      1.04545528	      0.00000000	      0.00000000	      0.00000000	      9.77855544	     -1.55679016	     10.74745217	    110.20786703	      1.92349014	    -49.28693191	    -10.02714422	      0.00000000	     -8.36132191	     -0.29883661	     -2.26377636	    -15.52781091	     -0.39745269	     -2.40526238	    -13.73681576	     -0.72659132	     -2.40526238	     -9.55615481	     -0.72659132	     -1.98080431	     -7.76432352	     -0.60938761	     -1.83931829	     -4.77765934	     -0.46289790	     -1.69783227	    -59.72408625	     -3.38049945	    -12.59044496	      0.00000000	      0.00000000	     28.54133372	     -9.34632370	    -36.29777182	     37.76448907	     -4.15527680	    -29.78928786	     26.62910031	     89.99559364	      0.00000000	      0.00000000	     45.98283513	     -9.89361979	     16.02119894	     25.24701144	     89.99559364	      0.00000000	      0.00000000
      2.16666667	      8.72292329	      5.97264523	    -37.26565428	     -0.67408668	      0.55057890	     -0.38689859	      3.89596910	    -33.30454105	      0.34668367	     59.90257589	      1.04549718	      0.00000000	      0.00000000	      0.00000000	     18.97005294	     -1.08915097	     16.00439994	    117.92696373	      2.05821379	    -45.06133884	     -8.56326972	      0.00000000	     -8.18939569	     -0.00352660	     -2.44003182	    -15.20852674	     -0.00469038	     -2.59253381	    -13.45435818	     -0.00857457	     -2.59253381	     -9.35966033	     -0.00857457	     -2.13502784	     -7.60467284	     -0.00719144	     -1.98252586	     -4.67942070	     -0.00546270	     -1.83002387	    -58.49603447	     -0.03989358	    -13.57072498	      0.00000000	      0.00000000	     28.54045967	    -10.01117706	    -40.35062924	     38.80124187	     -6.80017414	    -22.56609914	     27.17576856	     89.99559364	      0.00000000	      0.00000000	     47.64447104	     -7.17099561	     11.44730316	     25.00021524	     89.99559364	      0.00000000	      0.00000000
